<svg id="图层_1" data-name="图层 1" xmlns="http://www.w3.org/2000/svg" viewBox="0 0 200 200"><defs><style>.cls-1{fill:#fff;}</style></defs><path class="cls-1" d="M152.62,164.28a3.39,3.39,0,0,1-3.41-3.37v-13.4H135.72a3.38,3.38,0,1,1,0-6.76h13.49v-13.4a3.41,3.41,0,0,1,6.81,0v13.4h13.5a3.38,3.38,0,1,1,0,6.76H156v13.4a3.4,3.4,0,0,1-3.4,3.37Zm-106.85,0a18,18,0,0,1-12.72-5.16,17.48,17.48,0,0,1-5.24-12.53c-.24-23.19-.24-47-.24-70A17.48,17.48,0,0,1,32.81,64a18,18,0,0,1,12.71-5.16H58.24a10.82,10.82,0,0,0,9.51-5.36l5.76-9.69A17.59,17.59,0,0,1,89.19,35h22.33A17.34,17.34,0,0,1,127,43.8l5.76,9.69a10.9,10.9,0,0,0,9.5,5.36H155a17.92,17.92,0,0,1,12.8,5.26,17.39,17.39,0,0,1,5.12,12.44v41.07a3.67,3.67,0,0,1-7.33,0V76.56a10.93,10.93,0,0,0-10.86-10.69H142A17.88,17.88,0,0,1,126.27,57l-5.76-9.72A10.91,10.91,0,0,0,111,42H88.71a11,11,0,0,0-9.51,5.37L73.45,57a17.56,17.56,0,0,1-15.68,8.84H45.52A10.92,10.92,0,0,0,34.66,76.53v70A11,11,0,0,0,45.52,157.5H126.2a3.38,3.38,0,1,1,0,6.76H45.77Zm54.47-27a28.58,28.58,0,1,1,29-28.57,28.8,28.8,0,0,1-29,28.57Zm0-50.16a21.36,21.36,0,1,0,21.66,21.36,21.53,21.53,0,0,0-21.66-21.36Zm0,0"/></svg>