<svg id="图层_1" data-name="图层 1" xmlns="http://www.w3.org/2000/svg" viewBox="0 0 200 200"><defs><style>.cls-1{fill:#f55;}</style></defs><path class="cls-1" d="M100,175A74.94,74.94,0,0,1,47,47h0a74.57,74.57,0,0,1,53.05-22h0a74.41,74.41,0,0,1,53,21.93A75,75,0,0,1,100,175Zm.11-140.7h0A65.41,65.41,0,0,0,53.58,53.58h0A65.7,65.7,0,1,0,100.11,34.3Z"/><path class="cls-1" d="M129.83,81.7,111.52,100l18.31,18.3a8.15,8.15,0,0,1-11.52,11.52L100,111.52,81.7,129.83a8.14,8.14,0,1,1-11.51-11.52L88.5,100,70.19,81.71A8.14,8.14,0,1,1,81.7,70.19L100,88.5l18.3-18.31A8.14,8.14,0,1,1,129.83,81.7Z"/></svg>