<?xml version="1.0" standalone="no"?><!DOCTYPE svg PUBLIC "-//W3C//DTD SVG 1.1//EN" "http://www.w3.org/Graphics/SVG/1.1/DTD/svg11.dtd"><svg t="1532329853834" class="icon" style="" viewBox="0 0 1024 1024" version="1.1" xmlns="http://www.w3.org/2000/svg" p-id="7340" xmlns:xlink="http://www.w3.org/1999/xlink" width="200" height="200"><defs><style type="text/css"></style></defs><path d="M268.8 243.2l-100.266667 57.6v113.066667l100.266667-59.733334z" fill="#00C1DE" p-id="7341"></path><path d="M789.333333 580.266667V661.333333l-123.733333 72.533334-40.533333-23.466667 119.466666-70.4V221.866667l-219.733333-128-219.733333 128v117.333333l100.266666-57.6 123.733334-72.533333 123.733333 72.533333v49.066667l-128-74.666667-136.533333 78.933333-219.733334 128v256l219.733334 128 96-55.466666-91.733334-53.333334-123.733333-72.533333v-142.933333l36.266667-21.333334V640l219.733333 128 136.533333 78.933333 219.733334-128v-256L789.333333 409.6v170.666667z m-384-136.533334l123.733334-72.533333 123.733333 72.533333v142.933334l-123.733333 72.533333-123.733334-72.533333v-142.933334z" fill="#00C1DE" p-id="7342"></path><path d="M791.466667 253.866667v104.533333l89.6 53.333333v-106.666666zM428.8 870.4l91.733333 55.466667 98.133334-57.6-93.866667-55.466667z" fill="#00C1DE" p-id="7343"></path></svg>