<svg id="图层_1" data-name="图层 1" xmlns="http://www.w3.org/2000/svg" viewBox="0 0 200 200"><defs><style>.cls-1{fill:#457fff;}</style></defs><path class="cls-1" d="M173.48,85.28a7.64,7.64,0,0,0-5.56-5.72l-6.6-1.76A16.17,16.17,0,0,1,149.9,58l1.78-6.65a7.62,7.62,0,0,0-2.21-7.69A74.85,74.85,0,0,0,124,29,7.61,7.61,0,0,0,116.25,31l-4.82,4.82a16.16,16.16,0,0,1-22.87,0L83.74,31A7.62,7.62,0,0,0,76,29,75,75,0,0,0,50.54,43.77a7.59,7.59,0,0,0-2.2,7.68L50.09,58a16.16,16.16,0,0,1-11.42,19.8L32,79.58a7.62,7.62,0,0,0-5.55,5.74,75.16,75.16,0,0,0,0,29.36A7.62,7.62,0,0,0,32,120.42l6.66,1.78A16.17,16.17,0,0,1,50.1,142l-1.76,6.55a7.6,7.6,0,0,0,2.21,7.68A74.74,74.74,0,0,0,76,171,7.59,7.59,0,0,0,83.74,169l4.83-4.82a16.17,16.17,0,0,1,22.86,0l4.82,4.82A7.62,7.62,0,0,0,124,171a74.93,74.93,0,0,0,25.44-14.75,7.6,7.6,0,0,0,2.2-7.68L149.9,142a16.15,16.15,0,0,1,11.42-19.79l6.67-1.79a7.6,7.6,0,0,0,5.56-5.74A75.33,75.33,0,0,0,175,100a73.47,73.47,0,0,0-1.52-14.72ZM100,124.57A24.57,24.57,0,1,1,124.56,100,24.57,24.57,0,0,1,100,124.57Zm0,0"/></svg>