<svg id="图层_1" data-name="图层 1" xmlns="http://www.w3.org/2000/svg" xmlns:xlink="http://www.w3.org/1999/xlink" viewBox="0 0 813.35 819.2"><defs><style>.cls-1{fill:none;}.cls-2{clip-path:url(#clip-path);}.cls-3{fill:#ff5c5c;}</style><clipPath id="clip-path" transform="translate(-553 -130.52)"><rect class="cls-1" x="553" y="130" width="813.84" height="820.72"/></clipPath></defs><g class="cls-2"><path class="cls-3" d="M711,177.33V704s105.32-128.73,269.16-58.51c64.37,35.1,122.88,87.77,222.36,87.77s163.84-58.52,163.84-58.52V165.63S1220.06,311.92,1038.67,189c-46.81-35.11-128.73-70.22-193.1-52.67-70.22,17.56-134.58,41-134.58,41M594,949.72c-23.41,0-41-17.55-41-46.81V171.48c0-23.4,17.55-41,41-41s41,17.56,41,41V902.91c5.85,29.26-11.7,46.81-41,46.81Zm0,0" transform="translate(-553 -130.52)"/></g></svg>