<?xml version="1.0" encoding="utf-8"?>
<!-- Generator: Adobe Illustrator 25.3.1, SVG Export Plug-In . SVG Version: 6.00 Build 0)  -->
<svg version="1.1" id="图层_1" xmlns="http://www.w3.org/2000/svg" xmlns:xlink="http://www.w3.org/1999/xlink" x="0px" y="0px"
	 viewBox="0 0 200 200" style="enable-background:new 0 0 200 200;" xml:space="preserve">
<style type="text/css">
	.st0{fill:#ffffff;}
</style>
<path class="st0" d="M100,33.3c-36.9,0-66.7,29.9-66.7,66.7s29.9,66.7,66.7,66.7s66.7-29.9,66.7-66.7l0,0
	C166.7,63.1,136.9,33.3,100,33.3z M77.3,153.8C51.8,143,37.4,116,42.7,88.9c0.9,0.3,1.8,0.5,2.7,0.5c1.3,0,2.5-0.3,3.5-1
	c1-0.7,2.2-1,3.5-1c1,0,2.1,0.3,3,0.8c1.1,0.6,1.8,1.7,1.8,3c0,10.6,0.4,22,10,22.2c0.3,0,5.4,1.9,7.8,8.3c0.2,0.7,0.9,1.1,1.6,1
	c1.5,0,3.8-1,6.2-1c1.8,0,0,3.1,0,9.7S97,148,97,148c-0.1,3.5,0.1,6.9,0.4,10.3C90.5,158.1,83.7,156.5,77.3,153.8L77.3,153.8z
	 M141.3,141.3c-7.8,7.8-17.6,13.2-28.3,15.7c-0.2,0-0.4-0.1-0.7-0.1c-0.5,0-1.1,0.1-1.6,0.2c2-8.5,3-13.4,7.2-17
	c5.7-5,1.3-10.5-3.1-10.5c-0.3,0-0.5,0-0.8,0.1c-0.2,0-0.3,0-0.5,0c-2.9,0-1-4.5-4.1-4.8c-3.2-0.3-7.5-6.7-12.2-8.9
	c-2.5-1.2-4.9-4.3-8.7-4.5h-0.2c-2.4,0-5.5,1.5-7.1,1.5c-0.6,0-1-0.2-1-0.9c0-7.4-0.8-12.7-0.9-14.8c0-0.7-0.2-0.9-0.1-0.9
	c1.2,0.3,2.4,0.5,3.6,0.5h0.1c2.4,0,1.3-5,3.7-5.2c0.1,0,0.2,0,0.3,0c2.1,0,6.2,1.5,8.3,1.5c0.4,0,0.7-0.1,1-0.2c0,0,0.1,0,0.1,0
	c1.2,0,5.7,11.2,8.2,11.2c1,0,1.8-1.9,1.8-7.3c0-2.2-1.2-6.1,0-8.3c4.6-8.4,8.8-15.2,8.5-16.2c-0.1-0.3-1.5-0.6-3.3-0.6
	c-1.7,0-3.4,0.2-5,0.7c-1.2,0.4,0.4,2.3-1.3,2.7c-1.1,0.2-2.2,0.4-3.3,0.4c-5,0-8.6-2.6-6.9-5.2c2.1-3.1,9.5-1.4,10.2-7.6
	c0.3-2.9,0.6-6.2,0.8-8.9c0.1-1,0.9-1.8,1.9-1.9c4.8-0.4,5.3-6.1,0.8-9.8c19.5,2.9,36.2,15.3,44.5,33.2c-0.7-0.4-1.5-0.7-2.3-0.7
	c-3.7,0-7.1,5-5,10.7c-17.3,13.3-12.9,22.6-7.2,27.9c1.8,1.7,3.3,3.6,4.8,5.6c1.3,1.9,2.3,4.1,2.7,6.4c0.2,0.8,1,1.4,1.8,1.3
	c1.4,0,3.5-1,5.6-2.8C150.5,130.3,146.4,136.2,141.3,141.3L141.3,141.3z"/>
</svg>
