<svg id="图层_1" data-name="图层 1" xmlns="http://www.w3.org/2000/svg" viewBox="0 0 345.78 438.83"><defs><style>.cls-1{fill:#3a84fb;}.cls-2{fill:#fff;}</style></defs><path class="cls-1" d="M350.49,224.58h122.4V497.83a21.49,21.49,0,0,1-21.59,21.58H148.7a21.49,21.49,0,0,1-21.59-21.58V102.18A21.53,21.53,0,0,1,148.7,80.59h180V203a21.53,21.53,0,0,0,21.59,21.59Z" transform="translate(-127.11 -80.59)"/><path class="cls-1" d="M343.14,379.42a95.76,95.76,0,0,1-38.9-48.62,130.4,130.4,0,0,0,6.3-57.6,24.28,24.28,0,0,0-12.17-17.55,23,23,0,0,0-19.45-1.36,16.61,16.61,0,0,0-11.67,12.61,157,157,0,0,0,7.2,69.3,810.12,810.12,0,0,1-36.76,77.41,157.21,157.21,0,0,0-43.09,29.63q-17.08,17.11-6.3,31.51a24,24,0,0,0,19.79,9q22.53,0,54.92-55.77,55.82-18,71.1-20.73a126.88,126.88,0,0,0,57.65,17.11,20.77,20.77,0,0,0,22.48-15.28,21.08,21.08,0,0,0-4.52-23.34q-14.34-13.55-66.58-6.3Z" transform="translate(-127.11 -80.59)"/><path class="cls-1" d="M236,430a145.86,145.86,0,0,1-10.81,15.75c-3.58,4.52-6.61,8.09-9,10.82a68.11,68.11,0,0,1-6.3,6.3,18.23,18.23,0,0,1-5.41,3.15A138.39,138.39,0,0,1,236,429.83Z" transform="translate(-127.11 -80.59)"/><path class="cls-1" d="M289.11,353.32a106.41,106.41,0,0,0,31.51,36.91A426.83,426.83,0,0,0,263.91,410a494,494,0,0,0,25.2-56.71Z" transform="translate(-127.11 -80.59)"/><path class="cls-1" d="M290.94,311a92.86,92.86,0,0,1-2.72-16.64c-.59-6.93-.9-12.92-.9-18s.59-7.78,1.79-7.78c3.62,0,5.41,6,5.41,18A55.6,55.6,0,0,1,290.94,311Z" transform="translate(-127.11 -80.59)"/><path class="cls-1" d="M466.43,175.06a20.9,20.9,0,0,1,6.31,15.33v5.41H357.53V80.59h5.4a20.83,20.83,0,0,1,15.29,6.3Z" transform="translate(-127.11 -80.59)"/><path class="cls-1" d="M399.85,404.54q-5.42,6.31-38.9-8.09,38.9-.85,38.9,8.17Z" transform="translate(-127.11 -80.59)"/><path class="cls-1" d="M399.85,404.54" transform="translate(-127.11 -80.59)"/><path class="cls-2" d="M360.85,319.35l-80.51,82.39c-13.1,13.1-33.7,13.1-44.93,0a32.77,32.77,0,0,1,0-46.81l95.48-99.23a53.1,53.1,0,0,1,74.89,0c20.6,20.59,20.6,56.17,0,76.76l-103,104.85a70.25,70.25,0,0,1-103,0,78.13,78.13,0,0,1,0-106.72l88-89.87a1.83,1.83,0,0,1,1.87-1.87V237a9.27,9.27,0,0,1,13.11,13.1l-3.75,3.75-88,89.86a56.5,56.5,0,0,0,0,80.51c22.46,22.47,56.17,22.47,78.63,0l103-104.85c13.1-13.1,13.1-35.57,0-50.55-13.11-13.1-35.58-13.1-48.68,0l-95.49,97.36a14.71,14.71,0,0,0,0,20.6c5.62,5.61,15,5.61,18.73,0l80.5-82.38a9,9,0,0,1,13.11,0c3.74,5.61,3.74,11.23,0,15Zm0,0" transform="translate(-127.11 -80.59)"/></svg>